<svg width="416" height="150" viewBox="0 0 416 150" fill="none" xmlns="http://www.w3.org/2000/svg">
<path d="M171.831 87.6C169.137 87.6 166.764 87.0133 164.711 85.84C162.684 84.64 161.097 82.9867 159.951 80.88C158.831 78.7733 158.271 76.3467 158.271 73.6C158.271 71.5733 158.604 69.72 159.271 68.04C159.964 66.3333 160.911 64.8533 162.111 63.6C163.337 62.3467 164.764 61.3733 166.391 60.68C168.044 59.9867 169.844 59.64 171.791 59.64C172.884 59.64 174.111 59.7733 175.471 60.04C176.831 60.28 178.177 60.7867 179.511 61.56L179.671 67.36H177.191L176.391 62.72C175.671 62.32 174.964 62.04 174.271 61.88C173.604 61.72 172.951 61.64 172.311 61.64C170.524 61.64 168.897 62.0933 167.431 63C165.964 63.9067 164.791 65.2533 163.911 67.04C163.057 68.8 162.631 70.9867 162.631 73.6C162.631 76.2133 163.031 78.4133 163.831 80.2C164.631 81.9867 165.737 83.3333 167.151 84.24C168.591 85.1467 170.217 85.6 172.031 85.6C172.804 85.6 173.591 85.52 174.391 85.36C175.217 85.1733 176.017 84.8933 176.791 84.52L177.591 79.88H180.071L179.911 85.68C178.684 86.3467 177.377 86.8267 175.991 87.12C174.631 87.44 173.244 87.6 171.831 87.6ZM182.625 87V85.56L185.825 85C185.852 83.9067 185.865 82.84 185.865 81.8C185.892 80.7333 185.905 79.6667 185.905 78.6V61.04L182.625 60.64V59.24L188.865 57.44L189.425 57.76L189.265 63.44V78.6C189.265 79.6667 189.265 80.7333 189.265 81.8C189.292 82.8667 189.318 83.9333 189.345 85L192.545 85.56V87H182.625ZM194.939 87V85.56L197.939 85C197.966 83.9867 197.979 82.8933 197.979 81.72C198.006 80.52 198.019 79.48 198.019 78.6V76.72C198.019 75.6267 198.006 74.72 197.979 74C197.979 73.2533 197.952 72.48 197.899 71.68L194.699 71.32V69.92L200.859 67.48L201.459 67.88L201.339 73.32V78.6C201.339 79.48 201.339 80.52 201.339 81.72C201.366 82.8933 201.392 83.9867 201.419 85L204.219 85.56V87H194.939ZM199.659 63.08C198.912 63.08 198.272 62.84 197.739 62.36C197.232 61.88 196.979 61.2667 196.979 60.52C196.979 59.7467 197.232 59.1333 197.739 58.68C198.272 58.2 198.912 57.96 199.659 57.96C200.406 57.96 201.032 58.2 201.539 58.68C202.072 59.1333 202.339 59.7467 202.339 60.52C202.339 61.2667 202.072 61.88 201.539 62.36C201.032 62.84 200.406 63.08 199.659 63.08ZM207.053 87V85.56L210.013 85C210.04 83.9867 210.053 82.8933 210.053 81.72C210.08 80.5467 210.093 79.5067 210.093 78.6V76.68C210.093 75.5867 210.08 74.68 210.053 73.96C210.053 73.24 210.026 72.48 209.973 71.68L206.813 71.32V69.92L212.413 67.48L213.013 67.88L213.333 71.12C214.266 70.0533 215.36 69.1867 216.613 68.52C217.866 67.8267 219.106 67.48 220.333 67.48C221.586 67.48 222.6 67.7733 223.373 68.36C224.173 68.9467 224.746 69.9067 225.093 71.24C226.106 69.9867 227.24 69.0533 228.493 68.44C229.746 67.8 231.026 67.48 232.333 67.48C233.96 67.48 235.213 68.0267 236.093 69.12C237 70.2133 237.453 72 237.453 74.48V78.6C237.453 79.5067 237.453 80.5467 237.453 81.72C237.48 82.8933 237.506 83.9867 237.533 85L240.333 85.56V87H231.053V85.56L234.013 85C234.04 84.0133 234.053 82.9333 234.053 81.76C234.08 80.56 234.093 79.5067 234.093 78.6V75.12C234.093 73.2533 233.826 72 233.293 71.36C232.76 70.6933 231.906 70.36 230.733 70.36C229.906 70.36 229.053 70.5467 228.173 70.92C227.32 71.2933 226.386 71.9467 225.373 72.88C225.4 73.1733 225.413 73.4933 225.413 73.84C225.44 74.16 225.453 74.5067 225.453 74.88V78.6C225.453 79.5067 225.453 80.5467 225.453 81.72C225.48 82.8933 225.506 83.9867 225.533 85L228.333 85.56V87H219.053V85.56L222.013 85C222.04 84.0133 222.053 82.9333 222.053 81.76C222.08 80.56 222.093 79.5067 222.093 78.6V75.2C222.093 73.3867 221.84 72.1333 221.333 71.44C220.826 70.72 219.986 70.36 218.813 70.36C217.906 70.36 217.04 70.5467 216.213 70.92C215.386 71.2933 214.48 71.9067 213.493 72.76V78.6C213.493 79.48 213.493 80.52 213.493 81.72C213.52 82.8933 213.546 83.9867 213.573 85L216.333 85.56V87H207.053ZM258.148 87.4C257.188 87.4 256.388 87.12 255.748 86.56C255.108 86 254.708 85.2533 254.548 84.32C253.454 85.3867 252.494 86.1867 251.668 86.72C250.841 87.2533 249.841 87.52 248.668 87.52C247.201 87.52 245.934 87.1067 244.868 86.28C243.828 85.4267 243.308 84.1733 243.308 82.52C243.308 81.7467 243.481 81.0267 243.828 80.36C244.201 79.6933 244.868 79.04 245.828 78.4C246.788 77.76 248.161 77.12 249.948 76.48C250.561 76.2667 251.268 76.04 252.068 75.8C252.868 75.56 253.668 75.3467 254.468 75.16V74.16C254.468 72.2133 254.174 70.92 253.588 70.28C253.001 69.64 252.041 69.32 250.708 69.32C250.414 69.32 250.081 69.3333 249.708 69.36C249.361 69.3867 248.974 69.4533 248.548 69.56L247.788 72.16C247.414 73.44 246.721 74.08 245.708 74.08C244.588 74.08 243.961 73.5333 243.828 72.44C244.201 70.92 245.081 69.72 246.468 68.84C247.881 67.9333 249.601 67.48 251.628 67.48C253.734 67.48 255.294 68.0133 256.308 69.08C257.321 70.12 257.828 71.9067 257.828 74.44V82.96C257.828 83.8133 257.961 84.4267 258.228 84.8C258.494 85.1467 258.841 85.32 259.268 85.32C259.614 85.32 259.908 85.24 260.148 85.08C260.388 84.92 260.614 84.7067 260.828 84.44L261.628 85.32C261.148 86.0933 260.614 86.64 260.028 86.96C259.468 87.2533 258.841 87.4 258.148 87.4ZM246.868 81.92C246.868 82.9867 247.174 83.7467 247.788 84.2C248.401 84.6533 249.161 84.88 250.068 84.88C250.468 84.88 250.841 84.8267 251.188 84.72C251.561 84.6133 252.001 84.4133 252.508 84.12C253.014 83.8 253.668 83.3467 254.468 82.76V76.64C253.774 76.8267 253.094 77.04 252.428 77.28C251.761 77.4933 251.214 77.68 250.788 77.84C249.641 78.2933 248.788 78.76 248.228 79.24C247.668 79.72 247.294 80.1867 247.108 80.64C246.948 81.0933 246.868 81.52 246.868 81.92ZM270.059 87.52C268.673 87.52 267.566 87.1467 266.739 86.4C265.913 85.6533 265.499 84.5067 265.499 82.96C265.499 82.4533 265.499 81.96 265.499 81.48C265.526 80.9733 265.539 80.3333 265.539 79.56V70.12H262.219V68.36L265.779 67.92L266.819 62.56H269.219L268.979 68H274.379V70.12H268.939V82.52C268.939 83.5333 269.139 84.28 269.539 84.76C269.939 85.2133 270.473 85.44 271.139 85.44C271.593 85.44 272.019 85.3467 272.419 85.16C272.846 84.9733 273.313 84.7067 273.819 84.36L274.779 85.4C273.686 86.8133 272.113 87.52 270.059 87.52ZM285.627 69.32C284.881 69.32 284.121 69.5333 283.347 69.96C282.601 70.3867 281.947 71.0667 281.387 72C280.854 72.9333 280.507 74.1733 280.347 75.72H287.627C288.587 75.72 289.214 75.52 289.507 75.12C289.827 74.72 289.987 74.2267 289.987 73.64C289.987 72.8667 289.787 72.16 289.387 71.52C289.014 70.8533 288.494 70.32 287.827 69.92C287.187 69.52 286.454 69.32 285.627 69.32ZM285.587 87.52C282.894 87.52 280.734 86.6533 279.107 84.92C277.481 83.16 276.667 80.7467 276.667 77.68C276.667 75.6267 277.081 73.84 277.907 72.32C278.761 70.8 279.881 69.6133 281.267 68.76C282.681 67.9067 284.214 67.48 285.867 67.48C287.254 67.48 288.507 67.7867 289.627 68.4C290.747 69.0133 291.641 69.8933 292.307 71.04C292.974 72.16 293.307 73.5333 293.307 75.16C293.307 75.6133 293.281 76.04 293.227 76.44C293.174 76.8133 293.107 77.1333 293.027 77.4H280.267C280.321 79.8533 280.934 81.72 282.107 83C283.281 84.28 284.827 84.92 286.747 84.92C288.027 84.92 289.094 84.6667 289.947 84.16C290.801 83.6267 291.587 82.9467 292.307 82.12L293.267 82.88C292.521 84.2933 291.507 85.4267 290.227 86.28C288.947 87.1067 287.401 87.52 285.587 87.52ZM305.394 68.16L305.554 60.72H329.034L329.154 68.16H325.834L325.114 62.96H320.714C320.687 64.6133 320.66 66.2933 320.634 68C320.634 69.68 320.634 71.3867 320.634 73.12V74.56C320.634 76.2133 320.634 77.8667 320.634 79.52C320.66 81.1733 320.687 82.8267 320.714 84.48L324.154 84.84V87H310.434V84.84L313.834 84.48C313.887 82.8533 313.914 81.2133 313.914 79.56C313.914 77.9067 313.914 76.2533 313.914 74.6V73.12C313.914 71.44 313.914 69.76 313.914 68.08C313.914 66.3733 313.887 64.6667 313.834 62.96H309.474L308.714 68.16H305.394ZM343.272 87.44L343.032 84.08C342.179 85.2 341.206 86.0667 340.112 86.68C339.019 87.2933 337.832 87.6 336.552 87.6C334.846 87.6 333.472 87.0667 332.432 86C331.392 84.9067 330.886 83.04 330.912 80.4L331.072 70.64L328.752 70.12V68.44L336.912 67.28L337.552 67.72L337.352 73.36V80.44C337.352 81.6667 337.539 82.52 337.912 83C338.312 83.48 338.846 83.72 339.512 83.72C340.072 83.72 340.646 83.5467 341.232 83.2C341.846 82.8533 342.419 82.4267 342.952 81.92L343.112 70.6L340.912 70.12V68.56L348.872 67.28L349.512 67.72L349.392 73.36V84.72L351.472 85.16V87.04L343.272 87.44ZM353.409 87V85.12L355.569 84.64C355.596 83.68 355.609 82.64 355.609 81.52C355.609 80.4 355.609 79.4267 355.609 78.6V76.28C355.609 75.1867 355.596 74.3467 355.569 73.76C355.569 73.1467 355.542 72.44 355.489 71.64L353.049 71.28V69.72L360.929 67.04L361.649 67.48L361.889 70.36C362.929 69.1333 363.956 68.28 364.969 67.8C366.009 67.2933 367.116 67.04 368.289 67.04C370.022 67.04 371.409 67.6133 372.449 68.76C373.516 69.9067 374.049 71.6267 374.049 73.92V78.6C374.049 79.48 374.049 80.48 374.049 81.6C374.049 82.6933 374.062 83.7333 374.089 84.72L376.089 85.12V87H365.529V85.12L367.609 84.68C367.636 83.6933 367.649 82.6533 367.649 81.56C367.649 80.44 367.649 79.4533 367.649 78.6V74.4C367.649 73.12 367.476 72.2267 367.129 71.72C366.782 71.1867 366.222 70.92 365.449 70.92C364.409 70.92 363.262 71.4 362.009 72.36V78.6C362.009 79.4267 362.009 80.4133 362.009 81.56C362.009 82.68 362.022 83.7333 362.049 84.72L363.929 85.12V87H353.409ZM387.978 69.12C387.231 69.12 386.538 69.5867 385.898 70.52C385.284 71.4267 384.938 73.1067 384.858 75.56H388.258C389.218 75.56 389.858 75.3733 390.178 75C390.524 74.6 390.698 73.9467 390.698 73.04C390.698 71.7067 390.431 70.72 389.898 70.08C389.364 69.44 388.724 69.12 387.978 69.12ZM388.058 87.6C386.111 87.6 384.391 87.2 382.898 86.4C381.404 85.5733 380.231 84.4 379.378 82.88C378.524 81.3333 378.098 79.4933 378.098 77.36C378.098 75.12 378.591 73.24 379.577 71.72C380.591 70.1733 381.884 69.0133 383.458 68.24C385.031 67.44 386.671 67.04 388.378 67.04C390.138 67.04 391.631 67.4133 392.858 68.16C394.111 68.9067 395.058 69.92 395.698 71.2C396.338 72.4533 396.658 73.8933 396.658 75.52C396.658 76.2933 396.578 77 396.418 77.64H384.858C384.991 79.7467 385.564 81.3067 386.578 82.32C387.618 83.3067 388.831 83.8 390.218 83.8C391.311 83.8 392.244 83.6 393.018 83.2C393.791 82.7733 394.471 82.2533 395.058 81.64L396.458 82.92C395.631 84.4933 394.511 85.6667 393.098 86.44C391.684 87.2133 390.004 87.6 388.058 87.6ZM405.957 87.6C403.424 87.6 401.104 86.9867 398.997 85.76L399.117 80.88H402.317L402.997 84.84C403.477 85.0267 403.957 85.1733 404.437 85.28C404.917 85.36 405.437 85.4 405.997 85.4C407.144 85.4 408.024 85.2133 408.637 84.84C409.25 84.44 409.557 83.84 409.557 83.04C409.557 82.4267 409.33 81.8933 408.877 81.44C408.424 80.9867 407.53 80.5733 406.197 80.2L404.037 79.56C402.49 79.1067 401.29 78.3733 400.437 77.36C399.61 76.3467 399.197 75.0933 399.197 73.6C399.197 71.76 399.917 70.2133 401.357 68.96C402.797 67.68 404.864 67.04 407.557 67.04C408.73 67.04 409.81 67.1867 410.797 67.48C411.81 67.7467 412.837 68.1467 413.877 68.68L413.597 73.04H410.397L409.597 69.6C409.037 69.3867 408.304 69.28 407.397 69.28C406.49 69.28 405.757 69.4667 405.197 69.84C404.664 70.2133 404.397 70.7733 404.397 71.52C404.397 72.0533 404.61 72.5333 405.037 72.96C405.464 73.36 406.37 73.7733 407.757 74.2L409.717 74.76C411.61 75.32 412.97 76.12 413.797 77.16C414.624 78.2 415.037 79.4667 415.037 80.96C415.037 83.0667 414.224 84.7067 412.597 85.88C410.997 87.0267 408.784 87.6 405.957 87.6Z" fill="black"/>
<g opacity="0.21">
<path d="M80.3948 78.4064C80.3948 70.8536 83.6984 62.523 89.2325 58.1359C89.7486 57.7262 90.2996 57.3322 90.8692 56.9641C94.0436 54.9143 97.6447 53.8321 101.282 53.8321C112.116 53.8321 121.261 63.2917 122.099 75.3668L122.232 76.5153L123.254 76.475C134.574 76.4802 144.132 87.5902 144.132 100.741C144.132 113.894 134.567 125.008 123.245 125.008C118.492 125.008 114.387 123.513 111.041 120.183L110.736 120.071H109.645L109.241 120.228C107.174 122.023 102.871 125.661 96.0383 125.661C91.0214 125.661 87.5645 123.835 83.2904 119.051L82.5476 118.197L81.7874 118.995C78.091 122.943 73.2892 125.023 67.9038 125.023C56.3857 125.023 47.0157 114.595 47.0157 101.782C47.0157 98.1931 47.7468 94.7177 49.187 91.4557C49.4439 90.8744 49.7264 90.2943 50.0297 89.7324C53.8563 82.6413 60.4622 78.4064 67.8271 78.4064C69.6195 78.4064 71.8618 78.6756 73.0242 79.1751V76.687C71.8618 76.2356 69.6137 76.0015 67.8271 76.0015C59.7032 76.0015 52.3708 80.6708 48.1514 88.489C47.8166 89.1081 47.5237 89.748 47.24 90.3892C45.6522 93.9868 44.856 97.8185 44.856 101.78C44.856 115.919 55.1954 127.425 67.898 127.425C73.4844 127.425 78.5118 125.383 82.5034 121.508C86.8682 126.144 90.7389 127.971 96.0383 127.971C103.168 127.971 107.748 124.355 110.142 122.299C113.755 125.65 118.27 127.415 123.244 127.415C135.732 127.415 146.28 115.2 146.28 100.742C146.28 86.633 136.234 74.6606 124.144 74.0909C122.762 61.2965 112.902 51.4272 101.28 51.4272C97.2646 51.4272 93.2927 52.6212 89.7928 54.8817C89.1639 55.2862 88.5571 55.7207 87.9864 56.1746C81.885 61.0117 78.2421 70.0771 78.2421 78.4077C78.2421 78.4441 78.2456 78.4077 78.2456 78.4441" fill="#C58F8F"/>
<path d="M80.3948 78.4064C80.3948 70.8536 83.6984 62.523 89.2325 58.1359C89.7486 57.7262 90.2996 57.3322 90.8692 56.9641C94.0436 54.9143 97.6447 53.8321 101.282 53.8321C112.116 53.8321 121.261 63.2917 122.099 75.3668L122.232 76.5153L123.254 76.475C134.574 76.4802 144.132 87.5902 144.132 100.741C144.132 113.894 134.567 125.008 123.245 125.008C118.492 125.008 114.387 123.513 111.041 120.183L110.736 120.071H109.645L109.241 120.228C107.174 122.023 102.871 125.661 96.0383 125.661C91.0214 125.661 87.5645 123.835 83.2904 119.051L82.5476 118.197L81.7874 118.995C78.091 122.943 73.2892 125.023 67.9038 125.023C56.3857 125.023 47.0157 114.595 47.0157 101.782C47.0157 98.1931 47.7468 94.7177 49.187 91.4557C49.4439 90.8744 49.7264 90.2943 50.0297 89.7324C53.8563 82.6413 60.4622 78.4064 67.8271 78.4064C69.6195 78.4064 71.8618 78.6756 73.0242 79.1751V76.687C71.8618 76.2356 69.6137 76.0015 67.8271 76.0015C59.7032 76.0015 52.3708 80.6708 48.1514 88.489C47.8166 89.1081 47.5237 89.748 47.24 90.3892C45.6522 93.9868 44.856 97.8185 44.856 101.78C44.856 115.919 55.1954 127.425 67.898 127.425C73.4844 127.425 78.5118 125.383 82.5034 121.508C86.8682 126.144 90.7389 127.971 96.0383 127.971C103.168 127.971 107.748 124.355 110.142 122.299C113.755 125.65 118.27 127.415 123.244 127.415C135.732 127.415 146.28 115.2 146.28 100.742C146.28 86.633 136.234 74.6606 124.144 74.0909C122.762 61.2965 112.902 51.4272 101.28 51.4272C97.2646 51.4272 93.2927 52.6212 89.7928 54.8817C89.1639 55.2862 88.5571 55.7207 87.9864 56.1746C81.885 61.0117 78.2421 70.0771 78.2421 78.4077C78.2421 78.4441 78.2456 78.4077 78.2456 78.4441" stroke="#C58F8F" stroke-linecap="round" stroke-linejoin="round"/>
<path d="M82.3237 37.8607L88.398 32.9429C88.8185 32.6036 88.8185 32.0531 88.398 31.7137C87.9787 31.3744 87.2999 31.3744 86.8794 31.7137L80.8051 36.6315C80.3846 36.9709 80.3846 37.5213 80.8051 37.8607C81.2231 38.2001 81.9032 38.2001 82.3237 37.8607Z" fill="#C58F8F" stroke="#C58F8F" stroke-linecap="round" stroke-linejoin="round"/>
<path d="M13.7644 68.068L1.87758 68.4755C1.38208 68.5037 0.99187 69.1646 1.00013 69.9614C1.00942 70.7764 1.43371 71.4224 1.9416 71.3942L13.8284 70.9851C14.3239 70.9586 14.7141 70.2977 14.7059 69.5009C14.6976 68.6859 14.2733 68.0399 13.7644 68.068Z" fill="#C58F8F" stroke="#C58F8F" stroke-linecap="round" stroke-linejoin="round"/>
<path d="M54.4453 24.8033C55.1128 24.8033 55.8159 24.3082 55.8159 23.6992V9.26734C55.8159 8.65703 55.1128 8.16327 54.4453 8.16327C53.7778 8.16327 53.0747 8.65703 53.0747 9.26734V23.6992C53.0747 24.3082 53.7778 24.8033 54.4453 24.8033Z" fill="#C58F8F" stroke="#C58F8F" stroke-linecap="round" stroke-linejoin="round"/>
<path d="M25.4672 98.4009C25.1877 97.892 24.7343 97.892 24.4548 98.4009L20.4041 105.776C20.1238 106.285 20.1238 107.111 20.4041 107.621C20.6836 108.13 21.137 108.13 21.4165 107.621L25.4672 100.244C25.7459 99.7355 25.7459 98.9099 25.4672 98.4009Z" fill="#C58F8F" stroke="#C58F8F" stroke-linecap="round" stroke-linejoin="round"/>
<path d="M23.4742 36.2528C24.2678 36.8345 25.555 36.8345 26.3486 36.2528C27.1422 35.671 27.1422 34.7273 26.3486 34.1456L14.8482 25.7151C14.0546 25.1334 12.7672 25.1334 11.9736 25.7151C11.18 26.2969 11.18 27.2406 11.9736 27.8223L23.4742 36.2528Z" fill="#C58F8F" stroke="#C58F8F" stroke-linecap="round" stroke-linejoin="round"/>
<path d="M74.3988 45.6964C64.2411 34.1807 47.9901 33.7126 37.3193 44.2581L38.5236 45.6233C43.2936 40.9524 49.2232 38.5841 55.1696 38.5841C61.7025 38.5841 68.2365 41.4041 73.2113 47.0427C75.0176 49.0917 76.4922 51.3742 77.6408 53.8043L78.8271 52.3066C77.6474 49.9409 76.175 47.7114 74.3988 45.6964Z" fill="#C58F8F" stroke="#C58F8F" stroke-linecap="round" stroke-linejoin="round"/>
<path d="M34.2078 89.9417C25.3369 78.8699 24.9495 61.2024 32.9874 49.508L31.8586 48.0992C23.2063 60.5616 23.6114 79.4899 33.0967 91.3285C35.4386 94.2514 38.1304 96.4764 41.0023 98.0191L42.1093 96.4803C39.2321 95.0286 36.5372 92.8491 34.2078 89.9417Z" fill="#C58F8F" stroke="#C58F8F" stroke-linecap="round" stroke-linejoin="round"/>
</g>
</svg>
